HIERARCHY
ROOT Hips
{
	OFFSET 0.000000 0.000000 0.000000
	CHANNELS 6 Xposition Yposition Zposition Yrotation Xrotation Zrotation
	JOINT Chest
	{
		OFFSET 0.000000 -0.009282 11.569106
		CHANNELS 6 Xposition Yposition Zposition Yrotation Xrotation Zrotation
		JOINT Chest2
		{
			OFFSET -0.000000 0.016863 9.269641
			CHANNELS 6 Xposition Yposition Zposition Yrotation Xrotation Zrotation
			JOINT Chest3
			{
				OFFSET -0.000000 0.000000 8.374491
				CHANNELS 6 Xposition Yposition Zposition Yrotation Xrotation Zrotation
				JOINT Chest4
				{
					OFFSET -0.000000 0.000000 8.374493
					CHANNELS 6 Xposition Yposition Zposition Yrotation Xrotation Zrotation
					JOINT Neck
					{
						OFFSET -0.000000 0.000001 12.152554
						CHANNELS 6 Xposition Yposition Zposition Yrotation Xrotation Zrotation
						JOINT Head
						{
							OFFSET -0.000000 0.040100 7.802319
							CHANNELS 6 Xposition Yposition Zposition Yrotation Xrotation Zrotation
							End Site
							{
								OFFSET -0.000000 0.020946 14.853096
							}
						}
					}
					JOINT RightCollar
					{
						OFFSET 2.894404 0.000001 6.791374
						CHANNELS 6 Xposition Yposition Zposition Yrotation Xrotation Zrotation
						JOINT RightShoulder
						{
							OFFSET 13.574684 0.000001 0.000000
							CHANNELS 6 Xposition Yposition Zposition Yrotation Xrotation Zrotation
							JOINT RightElbow
							{
								OFFSET 23.923903 0.000002 0.000000
								CHANNELS 6 Xposition Yposition Zposition Yrotation Xrotation Zrotation
								JOINT RightWrist
								{
									OFFSET 19.846718 0.012767 0.000000
									CHANNELS 6 Xposition Yposition Zposition Yrotation Xrotation Zrotation
									End Site
									{
										OFFSET 14.973145 0.000001 0.000000
									}
								}
							}
						}
					}
					JOINT LeftCollar
					{
						OFFSET -2.894404 0.000000 6.791374
						CHANNELS 6 Xposition Yposition Zposition Yrotation Xrotation Zrotation
						JOINT LeftShoulder
						{
							OFFSET -13.574684 -0.000001 0.000000
							CHANNELS 6 Xposition Yposition Zposition Yrotation Xrotation Zrotation
							JOINT LeftElbow
							{
								OFFSET -23.923903 -0.000002 0.000000
								CHANNELS 6 Xposition Yposition Zposition Yrotation Xrotation Zrotation
								JOINT LeftWrist
								{
									OFFSET -19.846718 0.012763 0.000000
									CHANNELS 6 Xposition Yposition Zposition Yrotation Xrotation Zrotation
									End Site
									{
										OFFSET -14.973145 -0.000001 0.000000
									}
								}
							}
						}
					}
				}
			}
		}
	}
	JOINT RightHip
	{
		OFFSET 9.469263 0.004643 0.045487
		CHANNELS 6 Xposition Yposition Zposition Yrotation Xrotation Zrotation
		JOINT RightKnee
		{
			OFFSET 0.000000 0.002666 -40.478676
			CHANNELS 6 Xposition Yposition Zposition Yrotation Xrotation Zrotation
			JOINT RightAnkle
			{
				OFFSET 0.000000 0.049110 -35.224068
				CHANNELS 6 Xposition Yposition Zposition Yrotation Xrotation Zrotation
				JOINT RightToe
				{
					OFFSET -0.000001 12.539530 -6.151390
					CHANNELS 6 Xposition Yposition Zposition Yrotation Xrotation Zrotation
					End Site
					{
						OFFSET -0.000001 5.044996 -1.291870
					}
				}
			}
		}
	}
	JOINT LeftHip
	{
		OFFSET -9.469263 0.004641 0.045487
		CHANNELS 6 Xposition Yposition Zposition Yrotation Xrotation Zrotation
		JOINT LeftKnee
		{
			OFFSET 0.000000 0.002666 -40.478676
			CHANNELS 6 Xposition Yposition Zposition Yrotation Xrotation Zrotation
			JOINT LeftAnkle
			{
				OFFSET 0.000000 0.049110 -35.224068
				CHANNELS 6 Xposition Yposition Zposition Yrotation Xrotation Zrotation
				JOINT LeftToe
				{
					OFFSET -0.000001 12.539530 -6.151390
					CHANNELS 6 Xposition Yposition Zposition Yrotation Xrotation Zrotation
					End Site
					{
						OFFSET -0.000001 5.044996 -1.291870
					}
				}
			}
		}
	}
}
MOTION
Frames: 4
Frame Time: 0.016667
11.426657 5.556364 82.961823 -7.141246 -3.004963 -110.964435 -0.000000 -0.009282 11.569098 0.002645 -3.243308 -0.890870 0.000000 0.016863 9.269633 -0.001384 -1.438543 -0.400920 -0.000000 -0.000000 8.374489 -0.001385 -1.438544 -0.400922 -0.000001 0.000002 8.374514 -0.001982 -1.078908 -0.300679 0.000000 0.000001 12.152550 0.320048 -16.814500 -0.799679 0.000002 0.040104 7.802309 0.311724 4.958437 -1.369312 2.894404 0.000001 6.791364 3.518435 -1.928990 2.022980 13.574681 0.000001 -0.000001 65.942348 -11.566925 40.020831 23.923912 -0.000000 -0.000000 64.608235 -8.814404 50.446876 19.846720 0.012770 -0.000006 50.108737 30.289662 -8.230475 -2.894404 0.000000 6.791364 -9.838594 -3.477231 -6.472184 -13.574685 -0.000001 -0.000003 -62.998755 -7.977877 -49.856812 -23.923908 -0.000006 -0.000005 -55.121307 -4.787196 -52.546722 -19.846712 0.012764 -0.000005 -17.182765 57.402884 -11.144322 9.469263 0.004643 0.045488 0.336432 -11.275874 -2.577308 -0.000004 0.002665 -40.478756 0.208874 -1.668148 0.087352 0.000035 0.049096 -35.223816 0.313598 5.417301 -0.715767 -0.000001 12.539527 -6.151389 0.051963 0.015428 0.007020 -9.469262 0.004641 0.045483 -0.267763 -11.086436 -0.529942 -0.000055 0.002665 -40.478710 0.877477 -0.671811 1.153529 0.000032 0.049103 -35.223877 -0.599060 4.175448 -0.753404 -0.000001 12.539535 -6.151393 -0.002844 -0.036110 -0.005822 
11.423431 5.566787 82.960793 -7.166806 -3.022834 -110.951403 0.000000 -0.009282 11.569114 -0.018339 -3.244557 -0.854202 -0.000001 0.016863 9.269631 -0.010060 -1.438932 -0.385093 0.000000 0.000000 8.374487 -0.010060 -1.438932 -0.385093 -0.000001 -0.000001 8.374502 -0.008451 -1.079192 -0.288830 0.000000 0.000003 12.152564 0.370742 -16.851113 -0.830916 0.000001 0.040101 7.802323 0.394984 4.890746 -1.409244 2.894404 0.000001 6.791378 3.530353 -1.859342 1.982196 13.574681 -0.000001 -0.000011 65.155599 -11.653197 40.406542 23.923906 0.000015 -0.000000 63.350510 -7.897975 50.199442 19.846718 0.012768 -0.000002 50.600067 29.006020 -8.627958 -2.894405 0.000001 6.791374 -9.788825 -3.429177 -6.462001 -13.574680 -0.000001 -0.000017 -62.657212 -7.813212 -50.005078 -23.923910 -0.000001 -0.000003 -54.528098 -5.055440 -52.050150 -19.846716 0.012763 0.000002 -20.979423 56.633692 -12.151024 9.469264 0.004643 0.045487 0.339309 -11.292288 -2.570823 -0.000004 0.002665 -40.478760 0.210948 -1.688169 0.075451 0.000035 0.049097 -35.223824 0.309569 5.420194 -0.722161 -0.000001 12.539527 -6.151389 0.048866 0.014001 0.007124 -9.469264 0.004641 0.045486 -0.262264 -11.106139 -0.514646 -0.000054 0.002664 -40.478714 0.871465 -0.682108 1.143754 0.000034 0.049105 -35.223873 -0.594774 4.184996 -0.758332 -0.000000 12.539534 -6.151399 0.001026 -0.041587 -0.005979 
11.417286 5.578917 82.958885 -7.187119 -3.041434 -110.934478 0.000001 -0.009283 11.569107 -0.030708 -3.247333 -0.812692 -0.000001 0.016862 9.269637 -0.014260 -1.440163 -0.367003 0.000000 0.000000 8.374489 -0.014260 -1.440162 -0.367004 0.000000 0.000001 8.374498 -0.011559 -1.080113 -0.275270 -0.000001 0.000001 12.152564 0.423297 -16.880386 -0.866512 0.000000 0.040110 7.802303 0.480092 4.836664 -1.456638 2.894404 0.000001 6.791388 3.528857 -1.807994 1.952436 13.574682 -0.000001 0.000003 64.329338 -11.718579 40.892240 23.923906 0.000012 -0.000002 62.060560 -7.043409 49.984328 19.846714 0.012769 0.000000 50.995350 27.745053 -9.228593 -2.894404 0.000001 6.791390 -9.746772 -3.377163 -6.466743 -13.574680 0.000002 -0.000002 -62.238876 -7.675846 -50.166619 -23.923899 -0.000013 0.000008 -54.239676 -5.332090 -51.638228 -19.846720 0.012768 -0.000000 -23.893103 55.679839 -12.701363 9.469264 0.004642 0.045498 0.347819 -11.296764 -2.562789 -0.000003 0.002665 -40.478756 0.208668 -1.718939 0.061964 0.000035 0.049098 -35.223812 0.305311 5.427079 -0.738091 -0.000001 12.539531 -6.151398 0.047816 0.012094 0.007014 -9.469262 0.004642 0.045488 -0.255206 -11.114100 -0.530617 -0.000053 0.002665 -40.478706 0.870527 -0.703280 1.152125 0.000032 0.049106 -35.223869 -0.592940 4.201153 -0.767741 -0.000000 12.539532 -6.151390 0.003478 -0.049493 -0.006870 
11.407888 5.592684 82.958961 -7.207233 -3.054211 -110.906843 -0.000001 -0.009283 11.569099 -0.041346 -3.241449 -0.783989 -0.000001 0.016863 9.269629 -0.018141 -1.438095 -0.354711 0.000000 -0.000000 8.374484 -0.018141 -1.438095 -0.354707 -0.000001 0.000000 8.374495 -0.014440 -1.078560 -0.266063 0.000001 0.000001 12.152556 0.471686 -16.909247 -0.895381 0.000002 0.040101 7.802287 0.559835 4.783366 -1.493071 2.894405 0.000000 6.791365 3.518478 -1.771809 1.909428 13.574683 -0.000000 0.000001 63.490099 -11.837736 41.449181 23.923906 -0.000002 -0.000003 60.521623 -6.287247 49.861388 19.846720 0.012761 -0.000002 51.092984 26.389566 -9.892198 -2.894404 -0.000000 6.791368 -9.680282 -3.374254 -6.484774 -13.574681 -0.000003 0.000005 -61.793971 -7.569180 -50.290697 -23.923897 -0.000002 -0.000004 -53.852893 -5.676061 -51.426738 -19.846722 0.012757 -0.000002 -26.140418 54.677676 -12.887315 9.469262 0.004644 0.045482 0.351680 -11.295384 -2.561255 -0.000002 0.002665 -40.478748 0.205542 -1.754271 0.044817 0.000036 0.049096 -35.223827 0.303485 5.433535 -0.741904 -0.000001 12.539525 -6.151391 0.046703 0.011636 0.005892 -9.469264 0.004641 0.045487 -0.252570 -11.113338 -0.571083 -0.000054 0.002665 -40.478710 0.867726 -0.727082 1.167222 0.000033 0.049104 -35.223869 -0.588150 4.208800 -0.759561 -0.000002 12.539534 -6.151399 0.005873 -0.052516 -0.006521 
